<svg xmlns="http://www.w3.org/2000/svg" viewBox="0 0 2500 1875"><defs><style>.cls-1{fill:#fffefc;}.cls-2{fill:#ccd9e8;}.cls-3{fill:#99b2d0;}.cls-4{fill:#668cb9;}.cls-5{fill:#3365a1;}.cls-6{fill:#003f8a;}.cls-7{fill:#47c5e2;}</style></defs><g id="card_3" data-name="card 3"><path class="cls-1" d="M453.67,1174.82A403.71,403.71,0,0,0,330.89,884.38q-2.1-2-4.23-4.06c-14.65-18.12-35.17-30.83-55.12-43.71l-5-3.22c-1.65-1-3.32-2.1-5-3.13-14-8.12-28.67-13-41.7-22.51-1.69-.83-3.49-1.65-5.3-2.46s-3.38-1.51-5.07-2.24a351.25,351.25,0,0,0-58.13-20c-1.83-.48-3.65-.94-5.48-1.39A405.77,405.77,0,0,0,48.75,769.9,410.49,410.49,0,0,0,0,772.8H0v804a408.55,408.55,0,0,0,48.75,2.91,403.89,403.89,0,0,0,299.4-132.3c1.33-1.42,2.65-2.85,4-4.29,10.65-11.38,22.37-22.13,28.55-36.4q1.65-2.38,3.29-4.78a406.44,406.44,0,0,0,21.15-34.79c.94-1.74,1.86-3.48,2.6-5.19,1-5.45,1-12.29,3.91-17.17,10.74-21.49,29.31-41,28.69-66.23.43-2,.92-3.92,1.4-5.88q1.47-5.88,2.75-11.82.64-3,1.24-6c5-15.62,8.9-32.23,6.74-48.76.07-1,.15-2.07.22-3.11Q453.66,1189.07,453.67,1174.82Z"/><path class="cls-2" d="M1072.33,1129.77s71.93-18.67,87.81-26,43.2-46.89,43.2-46.89,54,7.77,61.19,12.22,37.36,29.78,50.21,30.89,96-27.78,102-32.89,20.08-37.56,20.08-37.56,72.86-12.44,77.3-14.22,13.31-19.78,20.78-21.55,246.85,7.33,256.65,9.33,194.07,126.67,194.07,126.67Z"/><path class="cls-3" d="M1359.44,1129.77s62.45-23.12,75.56-24.45,75-13.59,85.33-22.22c13.78-11.56,58.67-59.56,63.56-62s52.44-16,56.44-17.33,16.23-27.12,26.23-28.45,88.66-10.44,88.66-10.44l49.56,164.89Z"/><path class="cls-4" d="M1572,1129.77s108.31-54.4,118.11-63.12c8-7.11,9.74-54.68,14.67-73.11,5.34-20,32.89-78.63,32.89-78.63l57.62,6.42,145.38-35.23,78,243.67Z"/><path class="cls-5" d="M1686.28,1129.77s111-71.78,121.39-82.78c7.3-7.78,52.9-66.84,53.94-76.89,1.33-12.89,10.64-96.76,15.11-108,2.06-5.16,66.45-5.11,70.45-5.11s102.33-16.77,109.44-16.32,182.56,10.22,189.67,12-3.11,277.1-3.11,277.1Z"/><path class="cls-6" d="M1778.11,1129.77s140-25.48,151.76-32.68c14.46-8.87,35-92.33,46-119.5.92-2.27,14.2-11.53,15.85-14,9.41-14,15.85-75.83,26.4-79.17s140.77-52.66,155.44-65.33,31-63.14,39.88-68c14.83-8.14,167.8-51.49,174.79-56,5.42-3.5,34.83-44.75,41.05-46.67,11.54-3.55,70.68-10,70.68-10v491.34Z"/><polygon class="cls-7" points="2500 1129.77 2500 1875 0 1875 0 1129.77 1153.01 1129.77 2500 1129.77"/><polygon class="cls-1" points="1891.95 1162.95 749.5 1165.9 749.44 1168.43 1108.78 1172.75 1108.63 1174.18 0 1189.8 0 1194.43 1512.19 1180.57 1891.95 1169.93 1891.95 1162.95"/><polygon class="cls-1" points="102.78 1134.86 1999.89 1136.54 1999.89 1132.94 103 1132.94 102.78 1134.86"/><polygon class="cls-1" points="198.51 1252.04 605.67 1245.38 608.54 1240.49 199.61 1248.74 198.51 1252.04"/><polygon class="cls-1" points="0 1139.85 349.67 1141.39 349.67 1144.02 0 1145.91 0 1139.85"/></g></svg>