<svg xmlns="http://www.w3.org/2000/svg" xmlns:xlink="http://www.w3.org/1999/xlink" viewBox="0 0 2500 1875"><defs><style>.cls-1{opacity:0.83;}.cls-2{fill:#3a234f;}.cls-3{fill:#ff6598;}.cls-4{fill:#00325f;}.cls-5{fill:url(#linear-gradient);}</style><linearGradient id="linear-gradient" x1="1248.15" y1="963.1" x2="1316.22" y2="922.81" gradientUnits="userSpaceOnUse"><stop offset="0" stop-color="#0099eb"/><stop offset="1" stop-color="#ff6598"/></linearGradient></defs><g id="card_5" data-name="card 5"><g class="cls-1"><path class="cls-2" d="M1534,1300.49l-.14.08a135.27,135.27,0,0,0-31.62.22c-2.62.68-1.25,2.26,3,2.34a111,111,0,0,1,28.65.11c.29.8.69,1.65,1,2.4-7.56,5.62-19.53,14.5-27.87,20.67-17.37-4.38-36.63-9.37-53.91-13.17,7.54-.75,13.3-2,16.47-3.72l-.23.09a9.37,9.37,0,0,0,1.34-.85c9.46-7.42-30.43-16.48-71.62-21.27-37.83-4.41-83.11-6-99.54-.72l.25-.1-.84.26a19.44,19.44,0,0,0-2.39,1,6.5,6.5,0,0,0-2.5,1.88,3.09,3.09,0,0,0-.24.43c0,.05,0,.09-.07.13-1,2.26,2.4,4.69,8.81,7.1l.16.06,1.41.51,1.17.41.33.1,1.55.52,1,.31-1.27.72c-.82.44-1.6.89-2.34,1.33l-10.55,6c-16.32-1.31-32.33-2-46.89-1.92-21.49.09-38.27,1.8-48.24,4.89l.35-.13c-.37.11-.76.22-1.11.34a34.86,34.86,0,0,0-3.43,1.31c-9.32,4.19-6.94,9.58,7.24,15.22,13.63,5.42,36.69,10.57,64.94,14.41a606.4,606.4,0,0,0,84.47,5.67c24-.25,41.34-2.55,49.66-6.45,14.1,1.81,29.8,3.76,35.56,4.27,10.65.92,24.56-.56,31.15.25,4.74.59,16.52,13.66,27.71,17.68,8.69,3.12,31.46,8.14,45.53,8.11,2,0,4,0,6.18-.07l0,0c18.07-.22,42.56-1.74,70.77-4.4,11.46-1.07,34.46-4.16,39.29-6.8l.84-.49c.57-.35,1.13-.72,1.69-1.13a32.36,32.36,0,0,0,3.2-2.65c1,.24,2,.51,3,.81,1.73.47,6.08,2,9.84,3.06.36.11.88.24,1.53.4,2.74,1.21,16.58,3.61,19.42,3.49,8.84-.37,23.67-8.47,13.38-17.05a6.79,6.79,0,0,0-.8-.64l-.2-.14h0l-.52-.32h0c-5.59-3.23-18.77-5.08-20.23-4.77-1.92.4-4.08,1-4.08,1l-15.93-1.06c-.11-.31-.22-.61-.36-.91l0-.08a11.13,11.13,0,0,0-.57-1.08h0c-2-3.27-5.72-5.63-10-7.14-7.5-2.68-35.89-7.74-63.63-14-21.88-5-40.15-10.21-40.85-10.65-1.76-1.11-.16-3.29-2-4.26S1535.87,1299.74,1534,1300.49Zm-154.67,25.19c5.85,1.94,10.19,3.86,12.92,5.67l-10.44-.42c-10.67-2.18-26-5.23-37.63-7.27l7.43-5A238.76,238.76,0,0,1,1379.33,1325.68Zm-62-12.45c10.33,1.31,20.06,2.81,29,4.45l-10,6.59c-2.6,1.21-4.25,3.32-4.2,4.81,0,1.76,23,8.94,27.29,9s15.52-.87,15.52-.87,6.77.9,15.92,2.09c-6.63,2.26-19.9,3.63-37.71,3.8a576.57,576.57,0,0,1-79.57-5.35c-57.19-7.7-82-19.32-69.94-24.83C1215.16,1307.61,1263.9,1306.49,1317.31,1313.23Zm-17.34-5.45,4.89-2.81c2.94.32,17.67.89,19.86,1,4.9.33,54.25,8.83,65.5,11.29,9.91,2.17,29.28,3.31,37.41,5s36.78,12,36.78,12l-59.61-2.43c-2.62-2.86-8.53-5.84-17.55-8.79-15.37-5-38.28-9.57-64.54-12.85C1315.14,1309.27,1307.53,1308.46,1300,1307.78Zm161.82-.19a4.79,4.79,0,0,1-.83.49c-2.85,1.34-9.73,2.25-19.56,2.6-3.48-.68-6.84-1.29-10-1.82-9.78-1.59-84.35-6.7-100.18-8.12l-3.72-.8c-1.44-1.3.11-3.53-.61-4.54-.36-.49-5-1.49-7.09-1.17a37.7,37.7,0,0,0-5.59,2.19c-9.55-3.06-12.93-5.85-9.34-7.64a9.08,9.08,0,0,1,1.05-.43c9.41-3.26,46.35-3.43,89,1.58C1440.51,1295.27,1467.16,1303.49,1461.79,1307.59Zm52.47,20.52,25.06-19,2.58.81c9.51,3,33.37,11.2,37,12.3,6.58,2,40.35,9.89,38.7,9.93-17.51.39-38.77,4.55-64.18,4C1546.83,1336,1532,1332.54,1514.26,1328.11Z"/></g><path class="cls-2" d="M1357.38,1101c-3.08,1-6.41-2.65-4.47-6.16a34.25,34.25,0,0,0,14.49-26.79c-26.1-3.35-84.16-10.78-86.21-11l.31-3.26-.07-4.34c.36,0,.9,0,90.15,11.43l2.93.38.37,2.92C1375,1065.11,1377.4,1086.44,1357.38,1101Z"/><path class="cls-2" d="M1190.79,1313.21a19.31,19.31,0,0,1-3.94-.41c-11.69-2.43-20.06-15.42-23.58-36.58-3.29-19.75-2.16-44.78,3.19-70.46h0c5.34-25.68,14.29-49.07,25.19-65.87,11.67-18,24.53-26.57,36.21-24.14s20.06,15.42,23.59,36.58c3.29,19.76,2.15,44.78-3.19,70.46s-14.29,49.08-25.19,65.88C1212.69,1304.66,1201.38,1313.21,1190.79,1313.21Zm33.21-189c-15.31,0-38.31,32.72-48.85,83.33h0c-5.12,24.63-6.23,48.49-3.12,67.19,2.84,17,8.9,27.73,16.63,29.34s17.55-5.78,26.95-20.27c10.32-15.9,18.82-38.22,24-62.85,11-52.94,1.73-93.36-13.51-96.53A9.9,9.9,0,0,0,1224,1124.24Z"/><ellipse class="cls-2" cx="1210.3" cy="1214.75" rx="13.37" ry="6.08" transform="translate(-225.59 2152.11) rotate(-78.24)"/><path class="cls-2" d="M1299.32,1200.74c-1.32,6.35-.39,11.91,2.07,12.43s5.53-4.22,6.85-10.57.4-11.91-2.07-12.42S1300.64,1194.4,1299.32,1200.74Z"/><path class="cls-2" d="M1287.26,1290.31a16.81,16.81,0,0,1-3.31-.39c-22.8-5.12-24.89-53.36-15.28-96.14h0c5.15-22.91,13.3-43.77,22.95-58.74,10.46-16.22,21.81-23.9,32-21.61s17.16,14.08,19.67,33.22c2.32,17.66.76,40-4.39,62.91s-13.3,43.77-23,58.74C1306.61,1282.79,1296.55,1290.46,1287.26,1290.31Zm-9.92-94.58c-10.54,46.9-3.95,82.71,8.56,85.52a7.39,7.39,0,0,0,1.56.18c12.65.21,32.65-28.82,42.76-73.82,4.93-21.91,6.44-43.15,4.25-59.8-1.93-14.74-6.72-24.35-12.8-25.71-12.52-2.83-33.79,26.74-44.33,73.63Z"/><path class="cls-3" d="M1165.46,1276.23c-3.29-19.76-2.16-44.79,3.19-70.48s14.3-49.09,25.2-65.9c10-15.44,20.91-23.94,31.19-24.52-10.93-.63-22.69,8-33.44,24.52-10.9,16.81-19.85,40.21-25.2,65.9s-6.48,50.72-3.19,70.48c3.53,21.18,11.92,34.19,23.63,36.63a19.39,19.39,0,0,0,4,.4c.38,0,.76,0,1.14,0a20.93,20.93,0,0,1-2.85-.35C1177.38,1310.42,1169,1297.41,1165.46,1276.23Z"/><path class="cls-3" d="M1267.35,1257.32c-2.6-17.63-1.39-40,3.4-63,8.34-40.06,27.91-80.21,49.11-81.58-22-1.46-42.73,40.11-51.36,81.58-4.79,23-6,45.36-3.4,63,2.82,19.12,10,30.83,20.24,33a17.43,17.43,0,0,0,3.51.36c.35,0,.7,0,1.05-.06a18.26,18.26,0,0,1-2.31-.3C1277.36,1288.15,1270.17,1276.44,1267.35,1257.32Z"/><path class="cls-4" d="M1379,1059.81c-1.59-3-8.13-4.85-10.13-7.87-.79-1.19-5.06-22.94-6.8-46.55-2.14-29-.89-56.3-3.8-64.73-3-8.85-13.88-19.06-37-24.53-7-1.67-18.94-2.37-25.77-1.25-7.26,1.18-22.74,14.47-29.46,21.37-18.23,18.72-31.63,35.57-38.87,47.53-5.61,9.27-6.06,29.58-4.15,38.8,2.52,12.07,21.46,36,20.56,40.1-1.27,5.65-9.92,13.38-12.7,22-3,9.32-12.09,54-12.09,54s-6.44,6.42-8.18,9.45,1.5,30.68,4.74,33.7,9.15,5.88,12.58,5.19c1.26,0,2.71-1.18,3-3.46,1.27-12,2.16-28.58,2.68-40,9.21-19.79,29.67-64,29.67-64s8.28,35.76,8.12,44.45-6.65,24.84-6.65,35.82c0,12.61-5,65.35-6.63,69.7-.76,2.08-7.31,15.91-7.26,17.48.06,1.91,2.1,5.47,4.41,6.24,10.07,3.37,25.27,5.18,26.65,4.46,1.81-1,1.76-6.7.8-8-2.21-3-9.4-7.09-10.67-11.49-.64-2.2,29.49-83.57,30.65-95,4.07-40.39-10.35-117.76-3.62-130.47,10.2-19.25,29.06-30.36,38-43.06.85-1.21,3.49,33.35,5.06,40.8.88,4.15,9.19,33.39,12,45.11,1.15,4.75,1.65,7.52,2.46,8,1.82,1,14.79,12.66,17.75,12.31S1380.62,1062.76,1379,1059.81Z"/><path class="cls-4" d="M1336.7,937.51l10-26.56s2.33-1.1,4.13-2.19c1.57-.94,3.61-15.62-4.17-21.52-9.11-6.92-18.22-8.62-24.77-8.26s-14,2.56-16.5,5.44c-1.9,2.22-1.73,14.91-1.26,17.69.59,3.51,1.83,7.82,2.06,9.44a47.11,47.11,0,0,1,.59,10.05Z"/><rect class="cls-2" x="1234.19" y="1172.93" width="5.62" height="27.94" transform="translate(-215.6 2097.31) rotate(-75.89)"/><rect class="cls-2" x="1249.02" y="1234.73" width="5.62" height="29.9" transform="translate(-264.38 2160.67) rotate(-75.95)"/><path class="cls-3" d="M1330.84,885.45c10.61-2.87,19.85,6.83,18.3,4.3a10.1,10.1,0,0,0-1.19-1.4c-14.29-14.72-38.26-10-42.79-3.93-1.5,2-2.53,14.62-.93,16.68.42.55,12,.77,15-1C1322,898.46,1328.27,886.15,1330.84,885.45Z"/><path class="cls-5" d="M1278.67,940.87c16.82-11.46,54.45-8.4,67.54-14.52-5.9-4-14.06-7.65-24.93-10.22-7-1.67-18.94-2.37-25.77-1.25-7.26,1.18-22.74,14.47-29.46,21.37-16.3,16.74-28.81,31.71-36.36,43.51C1250.2,976.74,1261.21,952.77,1278.67,940.87Z"/></g></svg>