<svg xmlns="http://www.w3.org/2000/svg" viewBox="0 0 2500 1875"><defs><style>.cls-1{fill:#252b57;}.cls-2{fill:#22bfad;}.cls-3,.cls-5{fill:#2dffe6;}.cls-4{fill:#333961;}.cls-5{opacity:0.78;}.cls-6{fill:#868ec8;}.cls-7{fill:#28327b;}.cls-8{fill:#fff2e6;}.cls-9{opacity:0.83;}.cls-10{fill:#3a234f;}</style></defs><g id="card_4" data-name="card 4"><path class="cls-1" d="M308,800.9c6,7.85,55.66,34.32,71,41,9.91,4.31,47-21.9,56.66-18,28.45,11.56,66.34,32,81.66,27.62,37.73-10.79,168.27-120.51,184-123,4.42-.68-19.16,29.68-14.75,31.46,5.08,2.06,143.9-17.62,150.79-21,9.3-4.6-149.91-155-235.72-139.06C419.92,633.62,308,800.9,308,800.9Z"/><path class="cls-1" d="M751.79,667.82s41.9,95.71,71.58,102.25c6,1.32,35.93-19.79,49.6-20.85,4.49-.35-9.8,21.46-4.8,20.91,54.9-6.08,135.38-24.82,134.16-35.68C997.41,690.84,751.82,632.75,751.79,667.82Z"/><path class="cls-2" d="M354,687.88c-11.35,22.91-50.34,107.34-46,113,1.91,2.52,59.34-60.42,63.66-60.13,30.67,2.11,98.24,13.66,102.56,10.3,49.78-38.82,87.75-73.55,111.74-78.34,14.34-2.86-27.59,59.44-2.58,49.82,43.33-16.67,75.3-49.67,89.62-49.67,26.66,0,162.14,29.69,164.76,24.78s-162.56-118-209.45-118c-20,0-90.72,28.06-143.31,56.93-5.84,3.21-11.32-12.79-17.29-9.88C409.7,655,356,683.83,354,687.88Z"/><path class="cls-2" d="M734.59,669.46s74.15-50,96.89-49.9c30.66.12,189.43,108.79,179.83,114.52-4.23,2.52-60.55-8.12-121.31-21.53-10.48-2.31-23.87-33.16-34.37-35.58C788.81,661.55,729.3,673.43,734.59,669.46Z"/><path class="cls-1" d="M649.62,1297.84c.6-1.29-4.25-246.1-3.56-267.11.36-11,85.39-192.23,93.79-197.72S905.39,759,912.67,753c6.26-5.17-171,70.73-175.72,70.67-3.93,0-2.9-28.45,0-31.12,3.73-3.41,83.59-78.71,82.82-80.78s-82.36,70.14-86.31,71.18-9.29-47.76-12.19-52.25-72.93-42.67-70.8-40.24,65.41,39.25,66.25,42.58,6.56,50.26,6.67,52.37-1,43.9-3.95,50c-3.62,7.36-53.12,114-59.17,113s-16.9-113.79-14.74-118c3.71-7.17,19.52-27.36,22.3-34.13,3-7.27-12.55-90.11-13.67-85.83s8.67,78.4,7.53,82.26-16.65,27-20,27.58-33.35-47.46-37.34-51.65c-4.42-4.64-89.08-45.14-86.91-42,1.79,2.65,68.4,35.45,82.42,45.56,5.59,4,33.67,58.16,33.67,58.16s12.23,133,11.74,137.7-13.09,35.26-15.11,34.94-48.43-112.87-50.1-121.43c-.66-3.37-.89-70-1.94-77.48S511,739,509.47,739.75c-2.89,1.45,58.44,57.9,58.75,65.74.4,9.69,0,38.79-3.29,40.22s-53.13-47.05-59.4-52.21-114.66-23.25-109.21-21,98.69,20,105,25.18,62.5,55,62.67,58.33,1.94,18.18-.67,18.5c-2,.25-41.77-19.06-52.78-25.56-9.22-5.44-60.37-55.89-62.42-56.32-4.93-1,52.18,54.69,59.18,61.08s47.52,23.47,56.54,32.5c8.66,8.67,54.77,139.24,56.48,146.74s-4.89,264.89-4.89,264.89Z"/><path class="cls-3" d="M2501.77,1152.51S1754.1,1141.38,1208.66,1182C581.31,1228.61,1.77,1340.32,1.77,1340.32v538.76h2500Z"/><path class="cls-4" d="M1326.14,1185C698.21,1223.05,1.77,1380.47,1.77,1380.47v498.61h2500V1153.93S1843.43,1153.57,1326.14,1185Z"/><path class="cls-3" d="M2501.77,1157.43c-282.56.88-820.34,9.41-1177.15,48.41-536.34,58.62-984.56,188.23-1322.85,301v372.21h2500Z"/><path class="cls-4" d="M2501.77,1158.76c-254.84-2.47-829.42,17.54-1151.67,50.59-536.72,55-1012.19,215-1348.33,343.11v326.62h2500Z"/><path class="cls-5" d="M2501.77,1160.51c-255.23-5.55-738.44,15.24-1086.78,52.89C862.48,1273.11,337.91,1459,1.77,1587.14v291.94h2500Z"/><path class="cls-1" d="M2398.29,791.7c-9.5,23.07-52.06,196.42-57.33,203.26-10.21,13.25-485.42,209.64-505.77,228.22s-38.1,126.18-38.1,126.18,189.21,224.92,253.59,281.9c98.09,86.82,349.09,247.82,349.09,247.82h102V684.51S2407,770.66,2398.29,791.7Z"/><path class="cls-6" d="M2128.84,1146.93c21.47.3,109.58-10.74,157.85-17-2.15-11.31-8.21-34.56-9.23-36.27-1.25-2.08-109.91-31.22-129.06-35.38s-93.66-5-106.57,5.83c-7.51,6.3-38,37.56-62.2,62.59,28.42-15.41,59.24-31.16,69.28-32.2C2068.89,1092.4,2098.86,1146.52,2128.84,1146.93Z"/><path class="cls-7" d="M2127.84,1146.93c-30-.41-60-54.53-79.93-52.45-10,1-40.86,16.79-69.28,32.2-9.74,9.64-9.52,11.75-9.24,15,1.72,20.09,82.54,94,91.58,95.74,10.24,2,86.6-11,103.25-21.43,41.56-26,122.23-77.22,122.23-80.72a36.71,36.71,0,0,0-.76-5.37C2237.42,1136.19,2149.31,1147.23,2127.84,1146.93Z"/><path class="cls-7" d="M2172.4,1631.86c-3.39-.52-11.32-11.69-15.62-14.28s-42.64-4.65-50-3.5-22.92,25.55-28.21,28.48c-3.44,1.92-21.2-1.8-33.65-4.59,4.76,6.71,10.2,12.89,14.51,16.21,10.07,7.72,39.06,18.42,46.68,19.93s70.49-31.73,69.95-35.3C2175.92,1637.85,2174.5,1635.23,2172.4,1631.86Z"/><path class="cls-6" d="M2079.57,1642.56c5.29-2.93,20.86-27.33,28.21-28.48s45.7.92,50,3.5,12.23,13.76,15.62,14.28c-5.72-9.12-16.55-23.67-21.19-25.34-6.36-2.29-72.36-15.94-77.15-13.86s-33.48,37.22-31.9,41.71a12.45,12.45,0,0,0,2.76,3.6C2058.37,1640.76,2076.13,1644.48,2079.57,1642.56Z"/><path class="cls-7" d="M1826.16,1320.31c-5.32.89,23.31-38.07,20.66-37.78-1.83.21-46.34,22-73.89,35.49,24.83,11.88,94.48,44.9,102.22,45.38,9.45.6,111-34.82,114.52-38.36,3.38-3.39,4.6-63.21.6-72.74-19.32-3.38-46.91-9.4-52.55-10.2C1929.46,1240.92,1831.47,1319.43,1826.16,1320.31Z"/><path class="cls-6" d="M1902.71,1222.91c-12.39,1.78-133.4,76.15-137.53,90.91l8.75,4.2c27.55-13.53,72.06-35.28,73.89-35.49,2.65-.29-26,38.67-20.66,37.78s103.3-79.39,111.56-78.21c5.64.8,33.23,6.82,52.55,10.2a3.42,3.42,0,0,0-.6-1C1985.94,1246.53,1915.11,1221.14,1902.71,1222.91Z"/><path class="cls-6" d="M2502.75,1249.41l-129.38,42.42s41.93,119.22,40.65,122.75c-2.43,6.68-106.77,69.55-120.45,72.61-16.21,3.61-151.38-57.69-157.57-73.75-5.16-13.41,165-182.15,180.75-188.83,7.69-3.27,103.37-9.13,186-13.23Z"/><path class="cls-8" d="M1838.94,1204.83a1567.34,1567.34,0,0,0-314.63,77.63,1512.75,1512.75,0,0,0-149.92,63.4A1481,1481,0,0,0,1232,1425.41a1498.62,1498.62,0,0,0-255.41,203.81c-76.61,76-145.19,160.18-205.64,249.86h61c51-78.9,108.52-153.68,172.74-222.54a1466.09,1466.09,0,0,1,379-292.53,1494,1494,0,0,1,145.67-68.36,1571.88,1571.88,0,0,1,311-89.8Z"/><g class="cls-9"><path class="cls-10" d="M1806.06,1339.76c-.85.13-1.82,1-2.9,2.5l-.27-.09c-11.88-3.55-60.91,16.76-93.34,35.24-51.78,12.29-148.45,36.46-157.64,37.85-12.62,1.91-371.26-21.19-392.47-25.11-41.23-7.62-449.86-88.65-453.62-89l-39.51,9.44s456.45,87.65,469.83,91.31,220.72,70.92,230.26,77.9c9.9,7.25,14,32.66,20.67,38.09.54.44,1.44,1.15,2.62,2.07-5.1,10.51,2.46,29.2,4.22,43.4.76,6.14-69.61,19.13-68.39,25.74,1.9,10.26,17,45,27.24,50.28,7.4,3.84,175.06,1.72,217.79.78,7.42-.16,79-21.54,147.43-43.82,6.81-2.21-13.11-8.55-5.9-10.62,62.9-18,126.53-37.55,128.59-50.15,2-12-5.73-43.26-18.26-78.5,8.84,24.86,49.39-11.74,53.64-16.31C1887.11,1428.88,1816.69,1338.07,1806.06,1339.76Zm-182.55,134.37c-19.59,3-42.52,6.37-66.29,9.95-17.63-9-39.5-20.27-37.82-21.11,2.7-1.34,46.15-1.46,52.51-.83C1574.82,1462.43,1598.48,1468.1,1623.51,1474.13ZM1417.69,1489c2.09.42,10.42,6.72,20.23,14.64-18.82,3.63-33.44,7-40.9,9.84a16,16,0,0,0-1.56.7c-4.5-9.88-10.83-29.68-9.36-30.49C1388.25,1482.54,1412.17,1487.93,1417.69,1489Zm57.68,7.94c-10.67,1.8-20.83,3.58-30.15,5.31-6.79-5.88-11.24-10.25-9.84-10.63C1438,1490.93,1457.47,1493.91,1475.37,1497Zm23.79-33.3s28.68,12.14,49.7,21.68c-18.71,2.83-37.74,5.77-55.86,8.71-33.59-6.52-104.42-19.69-108.65-20.78-13.56-3.5-184.64-64.14-183.81-65.24s65.77,3.76,74.49,5.16S1499.16,1463.67,1499.16,1463.67Zm114.49-26.56c1.6.36,20.79,5.26,38.75,9.89-11.94,7.3-20.36,12.83-20.22,13.68.43,2.46,54.22.89,51.25,2.6s-23.66,5.27-52.57,9.72c-27.17-7.21-55.34-14.29-61.13-14.68-11.62-.78-50.85.31-64-.17-7.71-.28-188.22-42-186-45.16s204.94,9.69,218,10.43C1548.51,1424,1610.67,1436.43,1613.65,1437.11Zm8.44-3.6c1.59-.64,33-3.81,65.06-7-10.43,6-21.25,12.34-30.54,18C1638.59,1439.44,1620.26,1434.25,1622.09,1433.51Zm79.82-51.59h0c-2.94,1.81,32,2.91,29.67,4.56-7.25,5.06-48.63,10.56-49.54,13.4-1.3,4.07,7.09,10.84,19.62,18.37-2.61,1.46-5.31,3-8.07,4.55-38,2.76-80,6-83.6,6.3-5.29.44-47.51-7.9-45.57-9.62C1565.94,1418.12,1650.2,1395.92,1701.91,1381.92Z"/><polygon class="cls-10" points="616.73 1243.77 664.43 1258.98 703.98 1252.99 648.92 1239.59 616.73 1243.77"/></g></g></svg>