<svg width="64" height="64" xmlns="http://www.w3.org/2000/svg">

 <g>
  <title>background</title>
  <rect fill="none" id="canvas_background" height="66" width="66" y="-1" x="-1"/>
 </g>
 <g>
  <title>Layer 1</title>
  <path id="svg_1" d="m14.649,61.757c0.142,0 0.285,-0.006 0.428,-0.02l23.264,-2.202l3.818,0.962c0.369,0.093 0.738,0.137 1.103,0.137c2.019,0 3.862,-1.367 4.377,-3.412l10.734,-42.594c0.294,-1.169 0.116,-2.383 -0.502,-3.418c-0.618,-1.035 -1.603,-1.768 -2.772,-2.062l-23.851,-6.01c-1.59,-0.4 -3.189,0.114 -4.277,1.193l-6.612,-0.547c-1.203,-0.103 -2.37,0.275 -3.29,1.054c-0.92,0.779 -1.482,1.87 -1.581,3.072l-0.05,0.602l-5.349,0.506c-1.2,0.113 -2.285,0.688 -3.053,1.617s-1.129,2.102 -1.016,3.302l4.138,43.73c0.221,2.335 2.193,4.09 4.491,4.09zm16.11,-56.68l23.853,6.011c1.344,0.339 2.162,1.708 1.823,3.052l-10.734,42.595c-0.339,1.344 -1.706,2.164 -3.052,1.823l-23.853,-6.011c-1.344,-0.338 -2.162,-1.708 -1.823,-3.052l10.734,-42.595l0,0c0.338,-1.344 1.71,-2.162 3.052,-1.823zm-13.279,2.998c0.055,-0.669 0.368,-1.277 0.88,-1.711c0.512,-0.433 1.16,-0.642 1.833,-0.587l5.635,0.466c-0.017,0.058 -0.046,0.109 -0.061,0.168c0,0 0,0 0,0l-10.734,42.595c-0.294,1.169 -0.116,2.383 0.502,3.418c0.618,1.035 1.603,1.768 2.772,2.062l1.511,0.381l-3.664,-0.303c-1.381,-0.114 -2.412,-1.332 -2.298,-2.713l3.624,-43.776zm-8.903,3.835c0.428,-0.518 1.032,-0.837 1.7,-0.9l4.992,-0.472l-3.406,41.149c-0.206,2.48 1.646,4.666 4.126,4.871l15.687,1.298l0.87,0.219l-17.657,1.671c-1.376,0.138 -2.609,-0.886 -2.74,-2.266l-4.138,-43.73c-0.063,-0.669 0.138,-1.323 0.566,-1.84z"/>
  <path id="svg_2" d="m35.307,34.518c0.476,0 0.913,-0.15 1.28,-0.399c-0.6,0.863 -1.438,1.541 -2.428,1.932l3.568,1.159l-0.213,-0.45c-0.372,-0.786 -0.537,-1.649 -0.502,-2.516c0.368,0.78 1.155,1.322 2.075,1.322c1.274,0 2.307,-1.033 2.307,-2.307c0,-1.099 -0.77,-2.015 -1.8,-2.247c0.614,-0.414 1.017,-1.116 1.017,-1.913c0,-1.274 -1.033,-2.307 -2.307,-2.307c-1.274,0 -2.307,1.033 -2.307,2.307c0,0.361 0.09,0.697 0.237,1.001c-0.284,-0.125 -0.597,-0.197 -0.927,-0.197c-1.274,0 -2.307,1.033 -2.307,2.307s1.033,2.308 2.307,2.308z"/>
  <path id="svg_3" d="m30.871,11.114c0.163,0 0.313,-0.052 0.438,-0.137c-0.206,0.295 -0.492,0.528 -0.831,0.662l1.222,0.397l-0.073,-0.154c-0.128,-0.269 -0.184,-0.565 -0.172,-0.862c0.126,0.267 0.395,0.453 0.711,0.453c0.436,0 0.79,-0.354 0.79,-0.79c0,-0.376 -0.264,-0.69 -0.616,-0.769c0.21,-0.142 0.348,-0.382 0.348,-0.655c0,-0.436 -0.354,-0.79 -0.79,-0.79s-0.79,0.354 -0.79,0.79c0,0.123 0.031,0.239 0.081,0.343c-0.097,-0.043 -0.204,-0.068 -0.318,-0.068c-0.436,0 -0.79,0.354 -0.79,0.79c0,0.436 0.354,0.79 0.79,0.79z"/>
  <path id="svg_4" d="m40.835,53.609c0,0.436 0.354,0.79 0.79,0.79c0.163,0 0.313,-0.051 0.438,-0.137c-0.206,0.295 -0.492,0.528 -0.831,0.662l1.222,0.397l-0.073,-0.154c-0.127,-0.269 -0.184,-0.565 -0.172,-0.861c0.126,0.267 0.395,0.453 0.711,0.453c0.436,0 0.79,-0.354 0.79,-0.79c0,-0.376 -0.264,-0.69 -0.616,-0.769c0.21,-0.142 0.348,-0.382 0.348,-0.655c0,-0.436 -0.354,-0.79 -0.79,-0.79s-0.79,0.354 -0.79,0.79c0,0.123 0.031,0.239 0.081,0.343c-0.097,-0.043 -0.204,-0.068 -0.318,-0.068c-0.436,0 -0.79,0.353 -0.79,0.789z"/>
  <text id="svg_6" font-family="'Helvetica Neue', Helvetica, Arial-Unicode, Arial, Sans-serif" font-weight="bold" font-size="5px" fill="#000000" y="84" x="0">from the Noun Project</text>
 </g>
</svg>